PathFileType	4	(X/Y/Z)	C249e_D251_DD_1_S001_1.trc
DataRate	CameraRate	NumFrames	NumMarkers	Units	OrigDataRate	OrigDataStartFrame	OrigNumFrames
50.0	50.0	7	54	mm	50.0	158	314
Frame#	Time		Q_WaistRFront		Q_WaistLFront		Q_WaistL		Q_WaistR		Q_WaistBack		Q_LThighFrontLow		Q_RThighFrontLow		Q_RKneeIn		Q_RKneeOut		Q_RShinFrontHigh		Q_LKneeIn		Q_LKneeOut		Q_LShinFrontHigh		Q_RForefoot5		Q_RForefoot2		Q_RHeelBack		Q_RAnkleOut		Q_LForefoot5		Q_LForefoot2		Q_LHeelBack		Q_LAnkleOut		Q_SpineThoracic2		Q_Chest		Q_SpineThoracic12		Q_HeadL		Q_HeadR		Q_HeadFront		Q_LShoulderTop		Q_LArm		Q_LElbowOut		Q_LElbowIn		Q_LWristOut		Q_LWristIn		Q_LHand2		Q_RShoulderTop		Q_RArm		Q_RElbowOut		Q_RElbowIn		Q_RWristOut		Q_RWristIn		Q_RHand2		RHipAngles		LHipAngles		RKneeAngles		LKneeAngles		RAnkleAngles		LAnkleAngles		RShoulderAngles		LShoulderAngles		RElbowAngles		LElbowAngles		RWristAngles		LWristAngles		Neck
			X1	Y1	Z1	X2	Y2	Z2	X3	Y3	Z3	X4	Y4	Z4	X5	Y5	Z5	X6	Y6	Z6	X7	Y7	Z7	X8	Y8	Z8	X9	Y9	Z9	X10	Y10	Z10	X11	Y11	Z11	X12	Y12	Z12	X13	Y13	Z13	X14	Y14	Z14	X15	Y15	Z15	X16	Y16	Z16	X17	Y17	Z17	X18	Y18	Z18	X19	Y19	Z19	X20	Y20	Z20	X21	Y21	Z21	X22	Y22	Z22	X23	Y23	Z23	X24	Y24	Z24	X25	Y25	Z25	X26	Y26	Z26	X27	Y27	Z27	X28	Y28	Z28	X29	Y29	Z29	X30	Y30	Z30	X31	Y31	Z31	X32	Y32	Z32	X33	Y33	Z33	X34	Y34	Z34	X35	Y35	Z35	X36	Y36	Z36	X37	Y37	Z37	X38	Y38	Z38	X39	Y39	Z39	X40	Y40	Z40	X41	Y41	Z41	X42	Y42	Z42	X43	Y43	Z43	X44	Y44	Z44	X45	Y45	Z45	X46	Y46	Z46	X47	Y47	Z47	X48	Y48	Z48	X49	Y49	Z49	X50	Y50	Z50	X51	Y51	Z51	X52	Y52	Z52	X53	Y53	Z53	X54	Y54	Z54

158	3.14000	92.95897	843.65582	211.76265	-163.41933	851.12885	212.98674	-162.80881	861.29919	278.76556	93.56948	853.82611	277.54153	-34.61967	857.56268	278.15353	-94.06872	483.13098	261.42654	26.46129	477.91693	246.77132	-30.38964	425.54306	261.65155	109.56309	423.56058	258.60187	36.70063	223.58311	258.32471	-36.30113	432.34146	278.70767	-176.19434	427.98111	275.40906	-99.66247	229.78949	262.64389	115.44839	50.08743	200.25613	65.61254	50.23995	196.21089	54.06092	31.20716	337.80475	105.62567	69.82212	326.95636	-172.63670	44.12032	194.96919	-122.89739	47.71890	191.35664	-111.57693	34.02953	333.58517	-165.64445	68.48661	321.04965	-37.46200	1315.90759	415.43069	-26.27961	778.13293	78.77057	-37.46200	1315.90759	415.43069	-92.67448	1495.17712	261.72705	46.16450	1483.65210	275.54419	-17.27059	1478.85632	199.69572	-156.40315	1383.92786	297.97571	-204.23962	1481.86804	238.38014	-168.59859	1581.71875	240.93790	-182.20885	1550.15820	147.03003	-147.45667	1774.10889	103.45288	-100.34563	1757.40332	102.23938	-82.09090	1865.49524	98.71530	84.28249	1386.74475	308.60162	130.20262	1489.55750	265.35052	83.85095	1584.53003	256.47836	133.26648	1560.03662	173.06270	113.99731	1787.06091	136.33043	71.32723	1771.07397	115.74693	72.78241	1886.74524	127.41026	-9.82868	-3.80215	-0.45643	-7.32574	-8.30838	-1.45820	-6.25483	4.66690	0.02913	-0.05036	4.89750	-0.07753	-12.93184	5.95861	1.41968	-7.24447	5.90613	-1.79524	-32.50957	66.46242	-95.92554	33.09786	-83.10672	-95.97692	-8.54503	-83.10672	85.96544	-14.44320	-0.00000	85.96544	-9.77299	-18.37851	85.96544	3.94680	-14.99794	-0.00000	-28.47099	-5.71367	1.36235
159	3.16000	92.24127	843.36426	211.19753	-164.13492	850.81244	212.91896	-163.39696	861.01202	278.69196	92.97923	853.56384	276.97055	-35.20887	857.28790	277.83124	-94.27893	482.88962	261.32748	25.90433	477.62622	246.53110	-30.88581	425.27921	261.77368	109.04845	423.26523	257.98608	36.14499	223.30272	258.25772	-36.43344	432.17465	278.58249	-176.32281	427.63644	275.36292	-99.54626	229.54219	262.55588	114.37236	49.78266	199.82405	64.51387	50.14724	196.08260	53.74505	30.96032	337.71732	105.40259	69.37695	326.60928	-172.32852	43.94998	194.88762	-122.60213	47.68594	191.23671	-111.11483	33.74067	333.42700	-165.28380	68.08126	321.01035	-38.04585	1315.57324	415.22046	-27.03604	777.93713	78.33316	-38.04585	1315.57324	415.22046	-93.20377	1495.14758	261.80139	45.64793	1482.89563	274.84348	-18.14215	1479.33813	199.22490	-157.08272	1383.52100	297.76385	-205.60056	1481.53772	238.93434	-170.01305	1581.41284	241.27068	-184.92717	1550.10645	147.47581	-152.99876	1774.54626	104.25581	-105.76243	1758.28638	102.17201	-90.62850	1867.96362	100.54664	84.32626	1385.76941	308.60873	131.65454	1488.18469	265.67975	86.45154	1583.73401	257.07779	135.48613	1558.84045	173.55582	119.05057	1786.18604	137.43849	76.16552	1770.79272	116.84923	81.20847	1886.42590	128.67123	-9.82439	-3.78931	-0.48587	-7.34932	-8.37575	-1.52427	-6.28758	4.65004	-0.12872	-0.04610	4.89975	-0.08471	-13.04179	5.94069	1.19162	-7.35512	5.93091	-1.86788	-32.45775	66.30801	-95.14526	33.04804	-82.05354	-95.55312	-8.55738	-82.05354	85.95129	-14.07680	-0.00000	85.95129	-10.85295	-17.71752	85.95129	2.55737	-15.44908	-0.00000	-27.77486	-6.19158	0.98088
160	3.18000	92.21544	843.67041	211.43765	-164.15521	851.25891	213.34807	-163.36272	861.47504	279.11783	93.00793	853.88660	277.20746	-35.17740	857.68085	278.16266	-94.49751	483.31192	261.65662	26.30367	477.94168	246.65805	-30.32986	425.64371	262.16852	109.58132	423.55319	257.64270	36.56416	223.63246	258.08884	-36.69411	432.56311	278.93777	-176.58356	428.09875	275.62109	-99.90086	229.97044	262.77856	114.00778	49.26683	199.02768	64.13269	50.17288	195.61407	54.08883	31.24378	337.33673	106.08871	69.08237	325.84854	-172.41376	43.97651	194.93773	-122.67722	47.71451	191.43019	-111.62871	34.20277	333.69705	-165.76752	68.49134	321.00809	-37.94889	1316.03430	415.59976	-26.95539	778.45190	78.62646	-37.94889	1316.03430	415.59976	-93.92120	1494.54285	260.87213	44.96881	1483.83630	274.83395	-18.27508	1479.57715	198.79404	-156.66884	1384.28992	297.96890	-206.03606	1482.33167	239.39243	-170.53604	1582.24817	241.24361	-186.62369	1550.89929	147.65709	-157.74361	1775.71326	104.23738	-110.37914	1759.95215	101.37486	-97.44250	1869.74597	98.63055	84.30818	1386.49292	309.20135	132.67419	1488.78967	266.10278	88.00809	1584.56543	257.21982	137.12503	1559.26514	173.86867	121.95163	1786.62476	137.29095	79.04012	1771.41418	116.62123	83.56576	1886.81030	127.36265	-9.88368	-3.66182	-0.65454	-7.38562	-8.36566	-1.57796	-6.28393	4.52531	-0.21516	-0.04291	4.89005	-0.10574	-12.87972	5.94767	0.58756	-7.14686	5.79904	-1.93028	-32.57857	66.14165	-94.79704	33.12718	-81.04118	-95.11215	-8.46855	-81.04118	85.95309	-13.63550	-0.00000	85.95309	-10.04116	-17.88994	85.95309	1.97197	-14.47675	-0.00000	-27.72991	-5.62062	0.91665
161	3.20000	91.74268	843.12164	211.10561	-164.61638	850.89532	213.70494	-163.63989	861.10620	279.47305	92.71917	853.33252	276.87375	-35.46037	857.21936	278.17340	-94.87659	482.92709	261.62985	26.22166	477.35370	246.84897	-30.24585	425.11896	262.62018	109.64404	422.96320	257.50464	36.53553	223.07674	258.24127	-37.04564	432.19498	278.72427	-176.94080	427.67404	275.74109	-100.20385	229.59587	262.45673	113.34252	48.60201	198.71049	63.46048	49.97005	195.56226	53.98660	30.63876	337.26984	106.26582	68.04628	325.63852	-172.54622	43.85443	194.38850	-122.81703	47.67445	190.86519	-111.66778	33.70251	333.07971	-165.86221	67.95676	320.53638	-37.78179	1315.58325	415.79462	-27.56359	778.14734	78.56326	-37.78179	1315.58325	415.79462	-93.53510	1494.40991	261.46008	45.37756	1483.15259	274.74725	-18.23657	1479.30249	198.99490	-156.46545	1383.96252	298.08752	-207.34912	1481.83472	239.89214	-172.69626	1582.04919	241.68398	-189.11661	1550.71643	148.14992	-162.57198	1775.85864	104.94144	-115.08598	1760.53479	101.73834	-106.10345	1870.83447	97.68130	85.17012	1385.32642	309.31458	135.07645	1487.07629	266.13742	91.70823	1583.45361	257.32843	140.38838	1557.51172	173.91824	128.38289	1785.08313	137.48026	85.24277	1770.48962	116.84151	89.30908	1885.32812	125.97761	-9.82167	-3.54236	-0.82379	-7.42777	-8.40442	-1.62925	-6.21731	4.40969	-0.12953	-0.00723	4.86314	-0.06756	-13.03981	5.95198	0.09736	-7.25612	5.69114	-1.99469	-32.62725	66.02863	-94.01948	33.08834	-80.30042	-94.26417	-8.41474	-80.30042	85.95419	-13.62115	-0.00000	85.95419	-8.52721	-17.57427	85.95419	0.28916	-13.54859	-0.00000	-27.65114	-5.80288	0.77019
162	3.22000	91.29854	843.99518	210.05896	-165.05559	851.71558	213.24327	-163.93013	861.96295	279.00336	92.42399	854.24255	275.81906	-35.75307	858.10272	277.41119	-94.78816	483.82367	261.34949	26.27562	478.17969	246.42259	-30.04845	425.95041	262.32706	109.83296	423.85782	256.95883	36.82116	223.93712	257.95645	-36.86936	433.16992	278.36459	-176.76497	428.48853	275.66235	-99.83278	230.47626	262.52557	113.62062	48.91003	198.50038	63.73209	50.22083	195.43164	54.51968	31.62630	337.25507	106.74780	69.01487	325.33670	-172.29900	43.83485	195.13884	-122.59178	47.73458	191.39915	-110.87143	34.76872	333.66302	-165.18578	68.82193	321.09091	-38.10162	1316.53809	415.10422	-28.05407	779.20074	77.71072	-38.10162	1316.53809	415.10422	-93.46258	1495.62146	260.84421	45.41302	1483.91821	274.13348	-18.22561	1480.13184	198.39850	-156.74504	1385.02576	297.39862	-209.71587	1482.61890	239.65280	-176.30232	1583.25342	241.44417	-192.89961	1551.90674	147.94597	-167.44884	1777.18457	104.78618	-119.90943	1762.06348	101.41684	-112.92462	1872.88330	97.50634	84.52565	1386.72656	308.77325	135.84436	1488.46680	266.08557	93.18515	1585.16089	257.28778	142.10545	1559.07959	174.06184	131.90974	1786.82080	138.13753	88.77290	1772.58716	117.24220	92.83354	1886.86353	124.88969	-9.77576	-3.47023	-0.93216	-7.41185	-8.46511	-1.68834	-6.16708	4.33823	0.00967	-0.03745	4.87204	-0.01881	-12.77636	5.95952	0.10831	-6.94669	5.81762	-2.04632	-32.57302	65.58498	-93.45422	33.01115	-79.54819	-93.25348	-8.31907	-79.54819	85.95177	-14.05712	-0.00000	85.95177	-7.64703	-17.13368	85.95177	-0.62289	-13.62300	-0.00000	-27.81486	-5.96062	0.80416
163	3.24000	90.92207	843.82715	209.74808	-165.42525	851.64758	213.22256	-164.21957	861.95721	278.97150	92.12774	854.13672	275.49704	-36.04592	858.04700	277.23425	-95.07732	483.80008	261.45544	26.21007	478.01752	246.73555	-30.01141	425.82480	262.80719	109.85986	423.72867	257.18256	36.83974	223.81107	258.18533	-37.13336	433.15735	278.40997	-177.03214	428.46405	275.89963	-100.10109	230.45898	262.64813	113.54120	48.87422	198.47661	63.64670	50.16248	195.49683	54.69342	31.44464	337.32062	106.88170	68.86943	325.34164	-172.82765	43.77542	195.44820	-123.13640	47.72776	191.55479	-110.96055	34.74919	333.77930	-165.34923	68.74783	321.38208	-38.06870	1316.51245	415.01984	-28.53741	779.31567	77.38766	-38.06870	1316.51245	415.01984	-94.17268	1494.56763	259.70004	44.75937	1484.52039	273.73355	-18.48629	1479.24158	197.75906	-156.53122	1385.25793	297.27777	-211.55141	1482.58557	239.94278	-179.43439	1583.63794	241.91188	-195.88458	1552.32642	148.37593	-175.47179	1778.26904	106.02172	-127.64119	1764.17712	102.32706	-123.22256	1875.72314	100.44383	85.14076	1386.15149	308.74066	138.84447	1487.33679	266.70578	97.96093	1584.83215	258.32928	146.46771	1558.25305	175.01878	140.49290	1786.31226	140.17723	97.12032	1772.97412	119.17930	104.97222	1887.67212	129.39319	-9.74077	-3.38622	-1.01936	-7.44159	-8.49619	-1.69889	-6.03950	4.27106	0.05186	-0.00641	4.87636	0.00183	-12.78970	5.95862	0.14076	-6.95406	5.92512	-2.09176	-32.43218	65.20127	-92.28396	32.89831	-78.98505	-92.21992	-8.19578	-78.98505	85.94633	-13.70610	-0.00000	85.94633	-8.99395	-18.34589	85.94633	-0.86464	-13.96384	-0.00000	-28.41827	-5.13994	0.95426
164	3.26000	91.06777	843.69012	209.29939	-165.27641	851.65326	212.68198	-164.08649	862.03339	278.42010	92.25767	854.07025	275.03754	-35.91442	858.05182	276.72882	-95.12387	483.83789	260.92560	26.26186	477.93225	246.82617	-29.95742	425.83139	262.95636	109.91303	423.59048	257.36713	36.68219	223.74945	258.26053	-37.21652	433.17340	277.93164	-177.11395	428.52496	275.26773	-100.22832	230.51097	261.88684	113.30856	48.90728	198.51033	63.41400	50.12474	195.50189	54.40473	31.32316	337.31104	106.54574	68.82950	325.38135	-172.93642	43.75511	194.44855	-123.24302	47.72572	190.60141	-111.19459	34.74866	332.83685	-165.58417	68.72764	320.38980	-37.68684	1316.61450	414.37256	-28.44297	779.35767	76.82785	-37.68684	1316.61450	414.37256	-93.63235	1494.47217	258.73172	45.25234	1484.85083	273.51242	-17.64234	1478.49512	197.32935	-156.23315	1385.36462	296.71683	-212.88385	1482.32983	239.49759	-182.31314	1583.84277	242.24217	-197.11240	1552.64868	148.39177	-182.64125	1779.32092	107.51540	-134.40836	1766.58459	104.14290	-129.26009	1876.34741	100.32320	85.59625	1386.09680	307.93030	140.79381	1486.86780	265.71405	100.99638	1584.81824	257.41510	148.97261	1557.66467	173.98268	145.55016	1785.77209	139.11205	101.97082	1772.93408	118.23075	113.08083	1887.84387	129.82672	-9.71122	-3.36120	-1.06048	-7.52314	-8.49996	-1.71296	-5.91918	4.21709	0.07933	0.03277	4.86706	-0.02732	-12.80148	5.95812	0.28605	-6.89133	5.93885	-2.13017	-32.47609	65.09017	-91.58263	32.66878	-79.56020	-91.50597	-8.21239	-79.56020	85.92640	-12.97751	-0.00000	85.92640	-10.33610	-18.59006	85.92640	1.54349	-12.79621	-0.00000	-29.14235	-4.78229	1.31053
